# xmcd CD database file generated by Grip 3.0.4
# 
# Track frame offsets:
#       150
#       20822
#       39000
#       57985
# 
# Disc length: 1003 seconds
# 
# Revision: 3
# Processed by: cddbd v1.4PL0 Copyright (c) Steve Scherf et al.
# Submitted via: Grip 3.0.4
# 
DISCID=2a03e904
DTITLE=U2 - If God Will Send His Angels
DYEAR=1900
DGENRE=Rock
TTITLE0=If God Will Send His Angels (Single Version)
TTITLE1=Slow Dancing
TTITLE2=Two Shots of Happy, One Shot of Sad
TTITLE3=Sunday Bloody Sunday (Live from Sarajevo)
EXTD=
EXTT0=
EXTT1=
EXTT2=
EXTT3=
PLAYORDER=
